<?xml version="1.0" encoding="iso-8859-1"?>
<!-- Uploaded to: SVG Repo, www.svgrepo.com, Generator: SVG Repo Mixer Tools -->
<svg version="1.1" id="Layer_1"
	xmlns="http://www.w3.org/2000/svg"
	xmlns:xlink="http://www.w3.org/1999/xlink" viewBox="0 0 512 512" xml:space="preserve">
	<polygon style="fill:#9D9D9D;" points="137.919,403.679 102.796,403.679 113.246,512 137.919,512 "/>
	<rect x="88.576" y="403.675" style="fill:#D4D4D4;" width="48px" height="48px"/>
	<polygon style="fill:#6F6F6F;" points="423.428,403.679 388.305,403.679 398.754,512 423.428,512 "/>
	<g>
		<rect x="374.084" y="403.675" style="fill:#9D9D9D;" width="24.674" height="108.325"/>
		<polygon style="fill:#9D9D9D;" points="256,0 235.101,387.797 417.693,366.898 471.608,366.898 471.608,0 	"/>
	</g>
	<polygon style="fill:#D4D4D4;" points="40.392,0 40.392,366.898 94.307,366.898 256,387.797 256,0 "/>
	<path style="fill:#D61322;" d="M417.693,366.898V130.842c0-17.796-14.426-32.222-32.222-32.222H256l-20.899,329.084h214.947v-60.806
	h-32.355V366.898z"/>
	<path style="fill:#EC2533;" d="M126.53,98.62c-17.796,0-32.222,14.426-32.222,32.222v236.056H61.952v60.806H256V98.62H126.53z"/>
	<circle style="fill:#FFC222;" cx="162.826" cy="329.843" r="20.01"/>
	<circle style="fill:#FF9500;" cx="349.174" cy="329.843" r="20.01"/>
	<polygon style="fill:#3EAFF5;" points="363.795,152.517 256,152.517 235.101,205.846 256,256 363.795,256 "/>
	<rect x="148.208" y="152.513" style="fill:#7ACDFF;" width="107.792" height="103.487"/>
	<g>
		<polygon style="fill:#D4D4D4;" points="305.586,289.553 256,289.553 245.55,305.226 256,320.9 305.586,320.9 	"/>
		<polygon style="fill:#D4D4D4;" points="305.586,338.78 256,338.78 245.55,354.453 256,370.127 305.586,370.127 	"/>
		<polygon style="fill:#D4D4D4;" points="339.72,403.679 256,403.679 235.101,427.704 256,451.729 339.72,451.729 	"/>
	</g>
	<g>
		<rect x="172.283" y="403.675" style="fill:#EDEDED;" width="83.717" height="48.05"/>
		<rect x="206.409" y="289.552" style="fill:#EDEDED;" width="49.58" height="31.347"/>
		<rect x="206.409" y="338.777" style="fill:#EDEDED;" width="49.58" height="31.347"/>
	</g>
</svg>